<?xml version="1.0" standalone="no"?>
<!DOCTYPE svg PUBLIC "-//W3C//DTD SVG 20010904//EN"
 "http://www.w3.org/TR/2001/REC-SVG-20010904/DTD/svg10.dtd">
<svg version="1.0" xmlns="http://www.w3.org/2000/svg"
 width="745.000000pt" height="328.000000pt" viewBox="0 0 745.000000 328.000000"
 preserveAspectRatio="xMidYMid meet">

<g transform="translate(0.000000,328.000000) scale(0.100000,-0.100000)"
fill="#000000" stroke="none">
<path d="M6663 3265 c-162 -44 -299 -171 -349 -325 -10 -30 -37 -79 -61 -108
-88 -108 -129 -233 -119 -359 24 -294 293 -504 582 -454 54 10 87 10 151 0
303 -45 573 187 573 491 0 123 -41 231 -127 331 -23 28 -43 59 -43 68 0 10
-17 52 -37 92 -104 210 -349 323 -570 264z m205 -105 c24 -6 64 -20 89 -32 48
-22 162 -122 152 -132 -3 -3 -38 5 -77 19 -150 53 -286 51 -386 -3 -43 -23
-113 -98 -103 -109 2 -2 33 5 68 14 87 24 270 23 359 -1 108 -29 190 -74 251
-137 79 -79 103 -143 104 -269 0 -84 -3 -102 -29 -158 -52 -113 -171 -203
-299 -227 -36 -7 -36 -7 52 81 112 113 154 192 160 302 3 71 -18 162 -39 162
-4 0 -10 -19 -14 -42 -27 -167 -193 -386 -353 -465 -72 -36 -83 -38 -168 -38
-85 0 -96 2 -167 38 -159 78 -247 245 -218 408 12 63 28 109 40 109 3 0 12
-29 19 -63 32 -160 97 -282 178 -336 44 -29 147 -60 159 -48 4 3 -21 36 -54
72 -106 116 -192 325 -192 467 0 59 27 158 57 207 9 14 37 48 62 74 91 96 222
136 349 107z"/>
<path d="M116 2487 c-65 -37 -99 -88 -104 -156 -13 -180 183 -284 320 -171 48
40 68 86 68 157 0 48 -5 68 -29 105 -53 83 -170 114 -255 65z"/>
<path d="M710 1662 c0 -913 -1 -900 52 -978 13 -20 45 -45 75 -60 49 -24 60
-26 150 -21 93 5 151 16 182 36 12 8 11 28 -9 141 l-24 132 -32 -5 c-20 -3
-40 0 -53 9 l-21 15 0 790 0 789 -160 0 -160 0 0 -848z"/>
<path d="M3390 1836 c-70 -15 -135 -48 -184 -94 -25 -24 -40 -33 -43 -24 -15
39 -159 102 -235 102 l-28 0 0 -605 0 -605 155 0 154 0 3 388 c3 380 3 388 26
429 34 65 91 98 166 98 77 0 125 -28 164 -93 l27 -47 3 -387 3 -388 154 0 154
0 3 393 3 393 28 43 c67 102 200 119 286 38 61 -58 61 -58 61 -482 l0 -385
160 0 160 0 0 403 c0 441 -5 488 -58 601 -61 127 -166 205 -306 227 -154 24
-317 -42 -394 -159 l-15 -23 -49 55 c-57 65 -144 112 -233 126 -73 12 -95 12
-165 -4z"/>
<path d="M5280 1839 c-169 -28 -303 -163 -357 -361 -26 -92 -25 -426 1 -517
42 -153 123 -259 242 -317 66 -33 84 -38 172 -42 141 -7 242 26 337 109 l34
30 36 -40 c40 -44 108 -74 193 -85 l52 -7 0 606 0 605 -135 0 -134 0 -6 -37
c-13 -78 -12 -77 -58 -38 -56 48 -131 82 -208 94 -73 12 -92 12 -169 0z m233
-320 c47 -13 111 -69 140 -123 20 -36 22 -56 22 -176 0 -146 -7 -173 -64 -233
-60 -66 -170 -90 -251 -55 -46 20 -98 72 -121 123 -28 61 -27 272 2 335 27 60
54 88 114 116 55 26 99 30 158 13z"/>
<path d="M50 1225 l0 -605 155 0 155 0 0 605 0 605 -155 0 -155 0 0 -605z"/>
<path d="M1442 1408 c3 -417 3 -424 27 -491 49 -138 142 -241 261 -289 46 -19
74 -23 175 -23 114 0 123 2 186 31 37 18 85 48 107 68 l41 37 44 -44 c48 -49
110 -74 192 -79 l50 -3 3 603 2 602 -160 0 -160 0 0 -354 c0 -391 -3 -412 -63
-474 -116 -121 -292 -94 -373 58 -17 32 -19 67 -22 408 l-3 372 -155 0 -155 0
3 -422z"/>
<path d="M5645 268 c-39 -21 -45 -39 -45 -134 0 -88 1 -94 26 -113 37 -29 89
-27 119 4 33 33 34 75 1 75 -15 0 -26 -7 -29 -20 -7 -26 -33 -36 -52 -20 -11
9 -15 32 -15 80 0 48 4 71 15 80 19 16 45 6 52 -20 7 -27 53 -28 53 -1 0 33
-11 51 -41 66 -33 18 -57 18 -84 3z"/>
<path d="M4377 263 c-6 -9 -77 -247 -77 -257 0 -3 11 -6 24 -6 18 0 27 8 35
30 8 26 15 30 45 30 29 0 36 -4 45 -30 7 -23 16 -30 35 -30 15 0 26 6 26 13 0
6 -17 66 -38 132 -35 110 -40 120 -64 123 -14 2 -28 0 -31 -5z m47 -135 c6
-25 4 -28 -19 -28 -29 0 -29 1 -14 55 12 42 17 39 33 -27z"/>
<path d="M4570 135 l0 -136 68 3 c60 3 67 5 70 25 3 19 -2 22 -40 25 l-43 3
-3 108 c-3 106 -3 107 -27 107 l-25 0 0 -135z"/>
<path d="M4762 138 l3 -133 68 -3 c66 -3 67 -3 67 23 0 23 -4 25 -40 25 l-40
0 0 110 0 110 -30 0 -31 0 3 -132z"/>
<path d="M4962 138 l3 -133 28 -3 27 -3 0 135 0 136 -30 0 -31 0 3 -132z"/>
<path d="M5117 143 c-21 -70 -38 -131 -37 -135 0 -5 11 -8 25 -8 20 0 27 6 32
30 5 27 9 30 43 30 33 0 39 -4 49 -30 7 -23 16 -30 35 -30 15 0 26 3 26 8 0 4
-18 63 -38 132 -37 121 -39 125 -68 128 l-29 3 -38 -128z m70 -41 c-28 -5 -31
4 -17 50 l13 43 12 -45 c10 -41 10 -45 -8 -48z"/>
<path d="M5342 138 c3 -129 4 -133 25 -136 21 -3 22 1 25 80 l3 83 40 -80 c30
-60 46 -81 63 -83 22 -3 22 -3 22 132 0 128 -1 136 -20 136 -17 0 -19 -8 -22
-77 l-3 -78 -37 78 c-34 72 -39 77 -68 77 l-31 0 3 -132z"/>
<path d="M5842 138 l3 -133 73 -3 c71 -3 72 -3 72 23 0 23 -3 25 -45 25 -45 0
-45 0 -45 35 0 33 2 35 35 35 31 0 35 3 35 25 0 22 -4 25 -35 25 -32 0 -35 2
-35 30 0 29 2 30 45 30 38 0 45 3 45 20 0 18 -7 20 -75 20 l-76 0 3 -132z"/>
</g>
</svg>
